# AeroGNC-Lab Aquila-X1 fictional civilian research aircraft
# Visual geometry only. Axes: +X forward, +Y right, +Z down. Units: metres.
o Aquila_X1
v 5.20 0.00 0.00
v 3.00 -0.58 -0.48
v 3.00 0.58 -0.48
v 3.00 0.58 0.48
v 3.00 -0.58 0.48
v 0.00 -0.82 -0.70
v 0.00 0.82 -0.70
v 0.00 0.82 0.70
v 0.00 -0.82 0.70
v -3.65 -0.43 -0.40
v -3.65 0.43 -0.40
v -3.65 0.43 0.40
v -3.65 -0.43 0.40
v -4.60 0.00 0.00
v 1.25 -0.48 0.00
v 0.30 -5.85 0.08
v -1.20 -5.30 0.16
v -0.75 -0.70 0.20
v 1.25 0.48 0.00
v 0.30 5.85 0.08
v -1.20 5.30 0.16
v -0.75 0.70 0.20
v -2.85 -0.36 -0.05
v -3.55 -2.35 0.04
v -4.20 -2.10 0.10
v -3.65 -0.34 0.12
v -2.85 0.36 -0.05
v -3.55 2.35 0.04
v -4.20 2.10 0.10
v -3.65 0.34 0.12
v -2.95 0.00 -0.35
v -3.65 0.00 -2.05
v -4.25 0.00 -1.55
v -3.85 0.00 -0.28
v 2.15 -0.46 -0.52
v 0.55 -0.58 -0.82
v 0.55 0.58 -0.82
v 2.15 0.46 -0.52

# faceted fuselage
f 1 2 3
f 1 3 4
f 1 4 5
f 1 5 2
f 2 6 7 3
f 3 7 8 4
f 4 8 9 5
f 5 9 6 2
f 6 10 11 7
f 7 11 12 8
f 8 12 13 9
f 9 13 10 6
f 10 14 11
f 11 14 12
f 12 14 13
f 13 14 10

# left and right main wings
f 15 16 17
f 15 17 18
f 19 21 20
f 19 22 21

# horizontal tailplanes
f 23 24 25
f 23 25 26
f 27 29 28
f 27 30 29

# vertical tail
f 31 32 33
f 31 33 34

# cockpit canopy
f 35 36 37
f 35 37 38
f 35 38 1
f 35 1 2
f 38 3 1
f 36 6 7 37
